<?xml version="1.0" standalone="no"?>
<!DOCTYPE svg PUBLIC "-//W3C//DTD SVG 20010904//EN"
 "http://www.w3.org/TR/2001/REC-SVG-20010904/DTD/svg10.dtd">
<svg version="1.0" xmlns="http://www.w3.org/2000/svg"
 width="1000.000000pt" height="1000.000000pt" viewBox="0 0 1000.000000 1000.000000"
 preserveAspectRatio="xMidYMid meet">
<metadata>
Created by potrace 1.14, written by Peter Selinger 2001-2017
</metadata>
<g transform="translate(0.000000,1000.000000) scale(0.100000,-0.100000)"
fill="#000000" stroke="none">
<path d="M4655 8780 c-132 -32 -219 -85 -327 -198 -87 -92 -155 -145 -231
-181 -135 -63 -287 -75 -442 -34 -102 27 -243 37 -325 21 -129 -23 -273 -106
-360 -207 -43 -51 -120 -183 -120 -208 0 -31 -55 -174 -88 -228 -101 -167
-251 -266 -452 -300 -247 -41 -435 -203 -516 -445 -20 -59 -26 -242 -10 -310
12 -53 14 -173 4 -237 -24 -155 -142 -334 -277 -422 -52 -33 -124 -108 -168
-174 -132 -198 -140 -446 -22 -656 18 -31 43 -69 56 -85 30 -36 69 -112 95
-185 13 -39 21 -90 23 -166 5 -133 -13 -211 -76 -330 -39 -75 -83 -185 -74
-185 3 0 0 -12 -5 -26 -13 -32 -15 -141 -5 -214 17 -129 90 -273 179 -354 56
-50 106 -86 161 -116 238 -129 349 -329 346 -621 -1 -96 4 -144 19 -204 68
-267 292 -449 578 -471 126 -9 212 -25 237 -43 6 -4 26 -14 45 -21 55 -21 120
-69 187 -138 50 -51 74 -87 124 -190 72 -148 129 -225 213 -289 120 -90 230
-127 381 -126 107 0 131 5 301 67 97 35 116 38 221 42 169 6 298 -45 459 -181
74 -63 175 -117 261 -139 119 -31 301 -15 412 36 82 38 124 70 221 168 52 52
120 112 151 132 156 103 331 127 539 74 76 -19 116 -24 200 -22 58 2 116 6
129 9 131 35 234 95 319 186 74 79 119 164 157 296 42 144 147 287 268 362 83
52 127 69 260 97 158 33 238 73 338 167 83 79 135 166 170 281 22 76 29 196
15 273 -4 22 -9 90 -11 150 -4 91 -1 122 16 180 47 156 118 251 274 368 117
87 196 198 235 328 57 192 22 385 -105 568 -158 229 -172 432 -46 699 73 154
92 230 87 343 -5 111 -20 167 -70 268 -55 112 -138 195 -277 278 -159 94 -246
189 -302 333 -35 90 -39 113 -42 285 -4 167 -17 235 -67 330 -76 146 -187 246
-338 304 -74 28 -110 35 -240 46 -36 3 -72 7 -80 8 -153 30 -291 117 -392 247
-19 25 -47 72 -62 105 -78 170 -143 259 -235 323 -127 87 -236 123 -374 123
-92 0 -130 -8 -258 -56 -65 -24 -139 -48 -165 -52 -163 -28 -367 25 -490 127
-227 190 -406 244 -629 190z"/>
</g>
</svg>
